# xmcd
#
# Track frame offsets: 
#        150
#        14070
#        26505
#        35755
#        50005
#        67592
#        78965
#        93977
#        108457
#        120855
#        135705
#        149607
#        161955
#        176167
#        189167
#        203417
#
# Disc length: 2860 seconds
#
# Revision: 17
# Processed by: cddbd v1.5.2PL0 Copyright (c) Steve Scherf et al.
# Submitted via: ExactAudioCopy v0.99pb4
#
DISCID=d70b2a10
DTITLE=Shakin' Stevens - The Hits of Shakin' Stevens
DYEAR=1995
DGENRE=Rock and Roll
TTITLE0=This Ole House
TTITLE1=You Drive Me Crazy
TTITLE2=It's Late
TTITLE3=Green Door
TTITLE4=Teardrops
TTITLE5=Oh Julie
TTITLE6=A Love Worth Waiting For
TTITLE7=I'll Be Satisfied
TTITLE8=Marie Marie
TTITLE9=It's Raining
TTITLE10=Give Me Your Heart Tonight
TTITLE11=Shirley
TTITLE12=Cry Just A Little Bit
TTITLE13=A Rockin' Good Way (To Mess Around And Fall In Love) (Duet wi
TTITLE13=th Bonnie Tyler)
TTITLE14=A Letter To You
TTITLE15=Why Do You Treat Me This Way?
EXTD=
EXTT0=
EXTT1=
EXTT2=
EXTT3=
EXTT4=
EXTT5=
EXTT6=
EXTT7=
EXTT8=
EXTT9=
EXTT10=
EXTT11=
EXTT12=
EXTT13=
EXTT14=
EXTT15=
PLAYORDER=
